<svg width="12" height="12" viewBox="0 0 12 12" fill="none" xmlns="http://www.w3.org/2000/svg">
<path fill-rule="evenodd" clip-rule="evenodd" d="M5.99997 0.75C6.16242 0.75 6.30639 0.854597 6.3566 1.00909L7.49115 4.5H11.25C11.4143 4.5 11.5595 4.60701 11.6082 4.76399C11.6568 4.92097 11.5976 5.09133 11.462 5.18427L8.41474 7.27385L9.58965 10.7551C9.64183 10.9097 9.58806 11.0803 9.45667 11.177C9.32527 11.2737 9.14642 11.2744 9.0143 11.1787L5.99997 8.99436L2.98563 11.1787C2.85352 11.2744 2.67466 11.2737 2.54327 11.177C2.41188 11.0803 2.35811 10.9097 2.41028 10.7551L3.5852 7.27385L0.537894 5.18427C0.402354 5.09133 0.343124 4.92097 0.391775 4.76399C0.440427 4.60701 0.585622 4.5 0.749967 4.5H4.50878L5.64333 1.00909C5.69354 0.854597 5.83752 0.75 5.99997 0.75ZM5.99997 2.33825L5.13785 4.99091C5.08764 5.1454 4.94367 5.25 4.78122 5.25H1.95994L4.24329 6.81573C4.38169 6.91063 4.44019 7.08592 4.38653 7.24492L3.4964 9.88232L5.77993 8.22759C5.9112 8.13247 6.08873 8.13247 6.22001 8.22759L8.50353 9.88232L7.61341 7.24492C7.55975 7.08592 7.61825 6.91063 7.75664 6.81573L10.04 5.25H7.21872C7.05627 5.25 6.91229 5.1454 6.86208 4.99091L5.99997 2.33825Z" fill="#FF859B"/>
</svg>
